<?xml version="1.0" encoding="UTF-8" standalone="no"?>
<svg width="780px" height="780px" viewBox="0 0 780 780" version="1.1" xmlns="http://www.w3.org/2000/svg" xmlns:xlink="http://www.w3.org/1999/xlink" xmlns:sketch="http://www.bohemiancoding.com/sketch/ns">
    <!-- Generator: Sketch 3.2.1 (9977) - http://www.bohemiancoding.com/sketch -->
    <title>Artboard 1</title>
    <desc>Created with Sketch.</desc>
    <defs></defs>
    <g id="Page-1" stroke="none" stroke-width="1" fill="none" fill-rule="evenodd" sketch:type="MSPage">
        <g id="Artboard-1" sketch:type="MSArtboardGroup">
            <g id="Oval-1-+-Group" sketch:type="MSLayerGroup" transform="translate(15.000000, 15.000000)">
                <circle id="Oval-1" stroke="#F3F3F3" stroke-width="17" fill="#FFFFFF" sketch:type="MSShapeGroup" cx="375" cy="375" r="375"></circle>
                <g id="Group" transform="translate(63.000000, 107.000000)" sketch:type="MSShapeGroup">
                    <g id="Path-1-+-Path-2-+-Path-3" transform="translate(179.000000, 0.000000)">
                        <g id="Path-1-+-Path-2">
                            <path d="M0.144482377,55.7375779 L133.338493,0.453601345 L266.356849,56.14744 L223.161906,83.5122161 L223.161906,91.7430847 C223.161906,91.7430847 235.317834,123.212904 232.205897,151.476487 C232.205897,151.476487 258.925083,156.097232 222.672609,212.065715 C222.672609,212.065715 191.871795,295.739095 133.074284,297.959614 C74.2767741,300.180134 39.7893281,213.576309 39.7893281,213.576309 C39.7893281,213.576309 2.52445364,153.739605 30.3111965,151.483604 L36.4016122,81.0461582" id="Path-1" fill="#176EBE"></path>
                            <path d="M69.8214263,130.257394 L116.626323,149.242561 C116.626323,149.242561 129.972145,154.923583 145.067432,149.242561 L180.963164,136.394193 L196.600703,149.242561 L193.019564,132.352732 L196.600707,131.516186 C196.600707,131.516186 209.966621,148.237049 212.221529,165.392325 C225.023974,154.777159 225.873006,207.032338 206.282847,205.177635 C206.282847,205.177635 181.108148,278.089938 132.866573,278.759629 C78.9768942,279.547367 55.6410072,205.406919 55.7023009,204.971052 C42.9588794,216.152619 31.991841,155.829368 49.3583993,165.392325 C49.3583993,165.392325 51.5070853,144.584237 65.4332489,133.453749" id="Path-2" fill="#FFFFFF"></path>
                        </g>
                    </g>
                    <g id="Path-1-+-Path-2-+-Path-4" transform="translate(446.000000, 98.000000)">
                        <path d="M0.0968627174,37.4077704 L89.3917239,0.304430433 L178.568824,37.6828456 L149.610416,56.0484672 L149.610416,61.5725401 C149.610416,61.5725401 157.759896,82.6932244 155.673617,101.662072 C155.673617,101.662072 173.586479,104.763243 149.282386,142.325983 C149.282386,142.325983 128.633151,198.482614 89.2145952,199.972896 C49.7960396,201.463177 26.6752424,143.339804 26.6752424,143.339804 C26.6752424,143.339804 1.69242398,103.180943 20.3209894,101.666848 L24.4040771,54.3933948" id="Path-1" fill="#343434"></path>
                        <path d="M46.809121,87.4210701 L78.1876847,100.162793 C78.1876847,100.162793 87.134884,103.975559 97.2549448,100.162793 L121.319874,91.5397269 L131.803468,100.162793 L129.402629,88.827337 L131.80347,88.2658967 C131.80347,88.2658967 140.764139,99.4879525 142.275856,111.001561 C150.858769,103.877288 151.42797,138.947878 138.294493,137.703111 C138.294493,137.703111 121.417073,186.637542 89.0753431,187.086999 C52.9470564,187.615682 37.3023981,137.856993 37.3434901,137.564465 C28.8001476,145.068872 21.4477137,104.583468 33.0904625,111.00156 C33.0904625,111.00156 34.5309673,97.036401 43.8672343,89.5662746" id="Path-2" fill="#FFFFFF"></path>
                    </g>
                    <g id="Path-1-+-Path-2-+-Path-5" transform="translate(0.000000, 98.000000)">
                        <path d="M0.0968627174,37.4077704 L89.3917239,0.304430433 L178.568824,37.6828456 L149.610416,56.0484672 L149.610416,61.5725401 C149.610416,61.5725401 157.759896,82.6932244 155.673617,101.662072 C155.673617,101.662072 173.586479,104.763243 149.282386,142.325983 C149.282386,142.325983 128.633151,198.482614 89.2145952,199.972896 C49.7960396,201.463177 26.6752424,143.339804 26.6752424,143.339804 C26.6752424,143.339804 1.69242398,103.180943 20.3209894,101.666848 L24.4040771,54.3933948" id="Path-1" fill="#343434"></path>
                        <path d="M46.809121,87.4210701 L78.1876847,100.162793 C78.1876847,100.162793 87.134884,103.975559 97.2549448,100.162793 L113.275214,94.4762416 C113.275214,94.4762416 132.139293,99.805824 121.319877,127.29525 C149.999905,113.637668 129.402629,88.827337 129.402629,88.827337 L131.80347,88.2658967 C131.80347,88.2658967 140.764139,99.4879525 142.275856,111.001561 C150.858769,103.877288 151.42797,138.947878 138.294493,137.703111 C138.294493,137.703111 121.417073,186.637542 89.0753431,187.086999 C52.9470564,187.615682 37.3023981,137.856993 37.3434901,137.564465 C28.8001476,145.068872 21.4477137,104.583468 33.0904625,111.00156 C33.0904625,111.00156 34.5309673,97.036401 43.8672343,89.5662746" id="Path-2" fill="#FFFFFF"></path>
                    </g>
                    <path d="M190.730377,376.945071 C190.968931,376.950588 191.18651,376.960887 191.529002,376.960887 C196.180814,376.960887 207.709381,375.983653 214.278708,366.93404 C222.691039,355.342591 224.080103,341.056303 217.448476,334.406925 C215.31213,332.266354 212.544648,331.13575 209.449388,331.13575 C206.941123,331.13575 204.269125,331.92173 201.61685,333.313836 C195.58161,320.696605 158.248776,320 150.236227,320 C141.512083,320 98.0084527,320.817242 98,336.945819 L98,336.952807 C98,355.786521 104.877694,372.677906 115.701555,384.276343 C105.659101,387.425777 98.0366284,392.470095 98.0366284,400.292742 C98.0366284,416.551886 130.871678,420.890772 150.273168,420.890772 C169.673093,420.890772 202.504386,416.551886 202.504386,400.292742 C202.504386,392.470095 194.883478,387.425777 184.839772,384.276343 C186.952951,382.013664 188.941218,379.58989 190.730377,376.945071 L190.730377,376.945071 Z M211.980821,341.932393 C214.546377,344.499974 213.333255,352.993848 207.874366,360.516373 C205.024861,364.435604 200.206812,366.010138 196.399645,366.645321 C199.414135,359.807999 201.411168,352.228097 202.171912,344.19544 C204.922176,342.041628 207.557545,341.027247 209.449388,341.027247 C210.529145,341.027247 211.380365,341.33215 211.980821,341.932393 L211.980821,341.932393 Z M150.236227,329.892969 C174.075706,329.892969 188.740858,334.079587 193.098077,336.951336 C188.740858,339.82051 174.075706,344.007128 150.236227,344.007128 C126.391112,344.007128 111.727213,339.82051 107.369993,336.951336 C111.727213,334.079587 126.391112,329.892969 150.236227,329.892969 L150.236227,329.892969 Z M194.097063,400.184978 C193.292489,403.265267 179.075019,410.999274 150.273168,410.999274 C121.470065,410.999274 107.25009,403.265267 106.447708,400.396092 C106.924817,398.561528 112.195556,395.087697 122.428666,392.56609 C122.252724,393.182516 122.131568,393.824687 122.131568,394.524602 C122.131568,403.555457 137.433804,405.449237 150.273168,405.449237 C163.107523,405.449237 178.408507,403.555457 178.408507,394.524602 C178.408507,393.820641 178.286099,393.172585 178.110157,392.551746 C188.345771,395.051653 193.620267,398.478406 194.097063,400.184978 L194.097063,400.184978 Z" id="coffee-cup6" fill="#343434"></path>
                    <g id="apple54" transform="translate(404.000000, 311.000000)" fill="#343434">
                        <path d="M91.7088748,27.8007052 C86.5067983,24.4332758 80.4782666,24.6682127 73.7885707,25.6033539 C84.1376267,20.1491317 86.7409607,12.7371016 87.1174569,7.59152204 C87.2414252,6.00684937 86.6307666,4.44060312 85.4829122,3.36265718 C84.316692,2.28471123 82.72347,1.79641093 81.1440222,2.04977429 C66.9198095,4.24251904 61.1805372,14.3217743 58.9766566,20.5268734 C57.9344047,17.3252818 56.4284196,14.1052638 54.2383133,11.1524289 C50.3310166,5.84561814 44.9866062,2.17415267 38.2969103,0.211738258 C36.8597965,-0.216676157 35.3170801,0.0136541738 34.063623,0.824416937 C32.8101659,1.6351797 31.965345,2.96648901 31.767914,4.44060312 L31.6944513,4.87362414 C31.3546864,7.41186438 32.8974028,9.80269321 35.3354457,10.5259305 C39.7294327,11.8203869 43.1041248,14.1236902 45.5972648,17.486513 C47.7460483,20.402495 48.9857312,23.8205971 49.665261,27.0958944 C40.27122,25.1012338 33.4713301,19.2139905 19.5547424,25.801438 C5.49122931,32.4579845 -5.33992554,49.8939905 2.80065842,76.3681587 C9.34802036,97.7059605 24.9175185,112.267444 33.1131995,117.067528 L75.6021808,117.067528 C85.0513189,111.382975 100.460117,98.4291977 104.514339,75.0322428 C108.977198,49.1062608 103.040494,35.1206031 91.7088748,27.8007052 L91.7088748,27.8007052 Z M30.009401,43.5460866 C28.7375782,44.2462908 17.9569289,50.6540806 21.8871827,64.6535581 C22.6906808,67.5142608 21.0423618,70.4809154 18.1910913,71.2916782 C17.704401,71.4160566 17.2039364,71.4897623 16.7402032,71.4897623 C14.3893972,71.4897623 12.2360222,69.9419425 11.5886323,67.5649335 C6.47838417,49.3918704 18.1176286,37.6956962 24.9863898,34.07951 C27.5897237,32.6929214 30.8358562,33.7017683 32.2362386,36.3091076 C33.5952983,38.9210536 32.6127349,42.159498 30.009401,43.5460866 L30.009401,43.5460866 Z" id="Fill-1"></path>
                    </g>
                    <g id="dollar179" transform="translate(236.000000, 419.000000)" fill="#619FD8">
                        <path d="M124.098335,87.5276582 C121.863816,89.450237 120.01824,91.7206051 118.767519,94.3081569 L32.3572008,94.3081569 C31.018777,91.7428636 29.0664323,89.4613663 26.7137044,87.5276582 L18.3437891,87.5276582 C14.7822854,87.5276582 11.2512869,86.7875627 8.18549567,85.4186643 L5.42857143,85.4186643 L5.42857143,91.9181493 C5.42857143,94.7978441 7.99102384,97.9056886 10.0768296,99.221723 C11.7279336,100.265091 15.2436793,101.319588 18.3437891,101.319588 L132.8877,101.319588 C139.976389,101.319588 145.799104,97.0904707 145.799104,91.9181493 L145.799104,83.907868 C142.374875,86.1559775 137.848638,87.5276582 132.8877,87.5276582 L124.098335,87.5276582 Z" id="Fill-1"></path>
                        <path d="M137.317622,0.859631222 L13.9141622,0.859631222 C6.27308108,0.859631222 0,6.86595287 0,14.4257037 L0,69.2918457 C0,73.4844778 2.76064865,78.043101 5.00778378,79.9828542 C6.78659459,81.5078174 10.5742703,83.0490468 13.9141622,83.0490468 L137.317622,83.0490468 C144.954595,83.0490468 151.227676,76.8515965 151.227676,69.2918457 L151.227676,14.4257037 C151.227676,6.86595287 144.954595,0.859631222 137.317622,0.859631222 L137.317622,0.859631222 Z M140.879351,53.8836177 C132.757622,56.7586816 125.473946,63.3993879 122.105297,72.8012943 L29.0114595,72.8012943 C25.5483243,63.7491128 18.1331892,57.0921402 10.3647568,54.0747464 L10.3647568,29.7404006 C18.3098378,26.8328041 25.5154595,20.3344277 28.9498378,10.9447211 L122.183351,10.9447211 C125.539676,20.8427487 132.580973,27.1337302 140.879351,29.915263 L140.879351,53.8836177 Z" id="Fill-2"></path>
                        <path d="M75.5029189,17.6179599 C61.9584865,17.6179599 50.9651892,28.4838309 50.9651892,41.9075735 C50.9651892,55.3150498 61.9584865,66.1768542 75.5029189,66.1768542 C89.0473514,66.1768542 100.024216,55.3150498 100.024216,41.9075735 C100.024216,28.4838309 89.0473514,17.6179599 75.5029189,17.6179599 L75.5029189,17.6179599 Z M77.5076757,55.8071046 L77.5076757,60.3331953 L73.2064865,60.3331953 L73.2064865,56.1080306 C70.0925405,55.981967 67.1757838,55.1686533 65.4585946,54.1845437 L66.8060541,48.942737 C68.6998919,49.9593791 71.3619459,50.9150227 74.3156757,50.9150227 C76.8996757,50.9150227 78.6497297,49.9105803 78.6497297,48.1334898 C78.6497297,46.4173979 77.2036757,45.351957 73.8514595,44.2255175 C69.0038919,42.6070233 65.6968649,40.366344 65.6968649,36.0151158 C65.6968649,32.0746109 68.5396757,28.9758857 73.3667027,28.0243087 L73.3667027,23.7666115 L77.860973,23.7666115 L77.860973,27.7193161 C80.7982703,27.8494462 82.9016216,28.4838309 84.3928649,29.199547 L83.0618378,34.2664913 C81.8745946,33.7744365 79.7876757,32.7415281 76.5299459,32.7415281 C73.5762162,32.7415281 72.6313514,33.9940312 72.6313514,35.2506009 C72.6313514,36.7430315 74.2006486,37.6824088 78.0540541,39.1097744 C83.4438919,41.0007287 85.5965405,43.4650692 85.5965405,47.4991052 C85.612973,51.5006085 82.6921081,54.9002598 77.5076757,55.8071046 L77.5076757,55.8071046 Z" id="Fill-3"></path>
                        <path d="M118.264851,106.163258 C116.299181,107.56061 114.675659,109.208354 113.57542,111.078221 L37.5616872,111.078221 C36.3842979,109.216432 34.6668524,107.566668 32.5971965,106.163258 L25.23432,106.163258 C22.1013238,106.163258 18.9951627,105.628145 16.2982367,104.632633 L13.8730159,104.632633 L13.8730159,109.349705 C13.8730159,111.439675 16.127163,113.689169 17.962012,114.642276 C19.4144609,115.399512 22.5072045,116.172901 25.23432,116.172901 L125.99671,116.172901 C132.232513,116.172901 137.35466,113.105593 137.35466,109.349705 L137.35466,103.528079 C134.342422,105.161688 130.360766,106.163258 125.99671,106.163258 L118.264851,106.163258 Z" id="Fill-4"></path>
                    </g>
                </g>
            </g>
        </g>
    </g>
</svg>